<svg xmlns="http://www.w3.org/2000/svg" xmlns:xlink="http://www.w3.org/1999/xlink" width="500" zoomAndPan="magnify" viewBox="0 0 375 374.999991" height="500" preserveAspectRatio="xMidYMid meet" version="1.2"><defs/><g id="49cfc26e5f"><g style="fill:#ffffff;fill-opacity:1;"><g transform="translate(37.687502, 237.968708)"><path style="stroke:none" d="M 45.890625 -136.921875 L 45.890625 -125.921875 L 31.953125 -125.921875 L 31.953125 16.125 L 45.890625 16.125 L 45.890625 27.265625 L 19.5 27.265625 L 19.5 -136.921875 Z M 45.890625 -136.921875 "/></g></g><g style="fill:#ffffff;fill-opacity:1;"><g transform="translate(99.69002, 237.968708)"><path style="stroke:none" d="M 6.296875 -40.453125 C 6.296875 -48.671875 7.957031 -55.878906 11.28125 -62.078125 C 14.601562 -68.285156 19.171875 -73.097656 24.984375 -76.515625 C 30.804688 -79.941406 37.285156 -81.65625 44.421875 -81.65625 C 51.453125 -81.65625 57.554688 -80.140625 62.734375 -77.109375 C 67.921875 -74.078125 71.785156 -70.265625 74.328125 -65.671875 L 74.328125 -80.328125 L 87.8125 -80.328125 L 87.8125 0 L 74.328125 0 L 74.328125 -14.953125 C 71.679688 -10.265625 67.742188 -6.378906 62.515625 -3.296875 C 57.285156 -0.222656 51.203125 1.3125 44.265625 1.3125 C 37.128906 1.3125 30.675781 -0.441406 24.90625 -3.953125 C 19.144531 -7.472656 14.601562 -12.410156 11.28125 -18.765625 C 7.957031 -25.117188 6.296875 -32.347656 6.296875 -40.453125 Z M 74.328125 -40.3125 C 74.328125 -46.375 73.101562 -51.648438 70.65625 -56.140625 C 68.21875 -60.640625 64.921875 -64.085938 60.765625 -66.484375 C 56.609375 -68.878906 52.039062 -70.078125 47.0625 -70.078125 C 42.070312 -70.078125 37.523438 -68.898438 33.421875 -66.546875 C 29.316406 -64.203125 26.039062 -60.78125 23.59375 -56.28125 C 21.15625 -51.789062 19.9375 -46.515625 19.9375 -40.453125 C 19.9375 -34.296875 21.15625 -28.945312 23.59375 -24.40625 C 26.039062 -19.863281 29.316406 -16.394531 33.421875 -14 C 37.523438 -11.601562 42.070312 -10.40625 47.0625 -10.40625 C 52.039062 -10.40625 56.609375 -11.601562 60.765625 -14 C 64.921875 -16.394531 68.21875 -19.863281 70.65625 -24.40625 C 73.101562 -28.945312 74.328125 -34.25 74.328125 -40.3125 Z M 74.328125 -40.3125 "/></g></g><g style="fill:#ffffff;fill-opacity:1;"><g transform="translate(198.776793, 237.968708)"><path style="stroke:none" d="M 39.734375 1.3125 C 33.566406 1.3125 28.039062 0.265625 23.15625 -1.828125 C 18.269531 -3.929688 14.410156 -6.863281 11.578125 -10.625 C 8.742188 -14.382812 7.179688 -18.710938 6.890625 -23.609375 L 20.671875 -23.609375 C 21.054688 -19.597656 22.9375 -16.320312 26.3125 -13.78125 C 29.6875 -11.238281 34.109375 -9.96875 39.578125 -9.96875 C 44.660156 -9.96875 48.664062 -11.09375 51.59375 -13.34375 C 54.53125 -15.59375 56 -18.425781 56 -21.84375 C 56 -25.363281 54.429688 -27.976562 51.296875 -29.6875 C 48.171875 -31.394531 43.335938 -33.082031 36.796875 -34.75 C 30.835938 -36.3125 25.972656 -37.894531 22.203125 -39.5 C 18.441406 -41.113281 15.21875 -43.507812 12.53125 -46.6875 C 9.84375 -49.863281 8.5 -54.039062 8.5 -59.21875 C 8.5 -63.320312 9.71875 -67.082031 12.15625 -70.5 C 14.601562 -73.925781 18.070312 -76.640625 22.5625 -78.640625 C 27.0625 -80.648438 32.195312 -81.65625 37.96875 -81.65625 C 46.863281 -81.65625 54.046875 -79.40625 59.515625 -74.90625 C 64.984375 -70.414062 67.914062 -64.257812 68.3125 -56.4375 L 54.96875 -56.4375 C 54.675781 -60.632812 52.988281 -64.003906 49.90625 -66.546875 C 46.832031 -69.085938 42.707031 -70.359375 37.53125 -70.359375 C 32.738281 -70.359375 28.925781 -69.332031 26.09375 -67.28125 C 23.257812 -65.226562 21.84375 -62.539062 21.84375 -59.21875 C 21.84375 -56.582031 22.695312 -54.410156 24.40625 -52.703125 C 26.113281 -50.992188 28.265625 -49.625 30.859375 -48.59375 C 33.453125 -47.570312 37.039062 -46.425781 41.625 -45.15625 C 47.394531 -43.59375 52.085938 -42.050781 55.703125 -40.53125 C 59.316406 -39.019531 62.421875 -36.75 65.015625 -33.71875 C 67.609375 -30.6875 68.953125 -26.726562 69.046875 -21.84375 C 69.046875 -17.445312 67.820312 -13.488281 65.375 -9.96875 C 62.9375 -6.445312 59.492188 -3.6875 55.046875 -1.6875 C 50.597656 0.3125 45.492188 1.3125 39.734375 1.3125 Z M 39.734375 1.3125 "/></g></g><g style="fill:#ffffff;fill-opacity:1;"><g transform="translate(275.290544, 237.968708)"><path style="stroke:none" d="M 42.515625 27.265625 L 16.125 27.265625 L 16.125 16.125 L 30.046875 16.125 L 30.046875 -125.921875 L 16.125 -125.921875 L 16.125 -136.921875 L 42.515625 -136.921875 Z M 42.515625 27.265625 "/></g></g></g></svg>